<svg xmlns="http://www.w3.org/2000/svg" version="1.1" xmlns:xlink="http://www.w3.org/1999/xlink" xmlns:svgjs="http://svgjs.dev/svgjs" viewBox="0 0 800 800" opacity="0.5"><defs><symbol id="bbburst-shape-1" viewBox="0 0 194 167"><path d="m97 0 96.129 166.5H.871L97 0Z"></path></symbol><symbol id="bbburst-shape-4" viewBox="0 0 149 143"><path d="M71.647 2.781c.898-2.764 4.808-2.764 5.706 0l15.445 47.534a3 3 0 0 0 2.853 2.073h49.98c2.906 0 4.115 3.719 1.764 5.427L106.96 87.193a2.999 2.999 0 0 0-1.09 3.354l15.445 47.534c.898 2.764-2.266 5.062-4.617 3.354l-40.435-29.378a3 3 0 0 0-3.526 0l-40.435 29.378c-2.351 1.708-5.515-.59-4.617-3.354L43.13 90.547a3 3 0 0 0-1.09-3.354L1.605 57.815c-2.35-1.708-1.142-5.427 1.764-5.427h49.98a3 3 0 0 0 2.853-2.073L71.647 2.781Z"></path></symbol><symbol id="bbburst-shape-8" viewBox="0 0 87 168"><path d="m12 12 31.2546 18.0749c16.4102 9.4902 20.014 31.6325 7.4603 45.8369L36.3296 92.1884c-12.5684 14.2206-8.9394 36.3916 7.5068 45.8636L75 156" stroke-width="14" stroke-linecap="round" stroke-linejoin="round"></path></symbol><symbol id="bbburst-shape-10" viewBox="0 0 145 145"><circle cx="72.5" cy="72.5" r="61.5" fill="none" stroke-width="22"></circle></symbol><symbol id="bbburst-shape-11" viewBox="0 0 194 167"><path d="M10.398 161 97 11l86.603 150H10.397Z" stroke-width="11"></path></symbol><symbol id="bbburst-shape-13" viewBox="0 0 159 159"><path stroke-width="22" d="M11 11h137v137H11z"></path></symbol></defs><use xlink:href="#bbburst-shape-11" width="21.724481197699117" opacity="0.5590154716652735" transform="matrix(0.8721263273146566,0.48928076725398534,-0.48928076725398534,0.8721263273146566,648.5054849401477,234.05698679739618)" fill="none" stroke="#00a19d"></use><use xlink:href="#bbburst-shape-10" width="28.99495627513567" opacity="0.1911028580912234" transform="matrix(0.9820417456694044,0.1886637478759206,-0.1886637478759206,0.9820417456694044,272.7390294345255,-306.95268606164)" fill="none" stroke="#ffa6d5"></use><use xlink:href="#bbburst-shape-11" width="29.931688445940402" opacity="0.34120210520481187" transform="matrix(0.8828335979035637,0.4696858933507039,-0.4696858933507039,0.8828335979035637,437.7003067300253,-223.33358223136293)" fill="none" stroke="#ffbd9b"></use><use xlink:href="#bbburst-shape-8" width="5.778069560023337" opacity="0.9412148127204787" transform="matrix(0.927023455393313,0.375003350852552,-0.375003350852552,0.927023455393313,573.3571958050823,23.41609210439873)" fill="none" stroke="#2c2891"></use><use xlink:href="#bbburst-shape-10" width="9.430678464153106" opacity="0.7621702416643931" transform="matrix(0.9427002593372429,0.3336408563792736,-0.3336408563792736,0.9427002593372429,618.1212363182219,80.62065676930592)" fill="none" stroke="#2c2891"></use><use xlink:href="#bbburst-shape-11" width="4.986089862690126" opacity="0.9191932623574495" transform="matrix(0.8323004961266824,-0.5543247100276861,0.5543247100276861,0.8323004961266824,151.39640905218508,41.780162573743496)" fill="none" stroke="#ffa6d5"></use><use xlink:href="#bbburst-shape-1" width="23.59839714231673" opacity="0.17178790228337693" transform="matrix(0.8596809813301731,0.5108312934219972,-0.5108312934219972,0.8596809813301731,655.7620615867548,417.69775154925014)" fill="#ffa6d5"></use><use xlink:href="#bbburst-shape-11" width="29.912645279489283" opacity="0.19371967844692606" transform="matrix(0.9738180978861986,0.22732864366222363,-0.22732864366222363,0.9738180978861986,767.7301519840944,223.03331021574843)" fill="none" stroke="#2c2891"></use><use xlink:href="#bbburst-shape-8" width="9.682172869460945" opacity="0.7064607380663754" transform="matrix(0.9082223886716293,-0.4184878644782903,0.4184878644782903,0.9082223886716293,353.4885122999817,80.60921792833705)" fill="none" stroke="#ffbd9b"></use><use xlink:href="#bbburst-shape-11" width="23.554765287230946" opacity="0.25470055326930885" transform="matrix(0.8568241669107141,-0.5156087150133914,0.5156087150133914,0.8568241669107141,491.6823519865561,195.4157689320715)" fill="none" stroke="#ffa6d5"></use><use xlink:href="#bbburst-shape-10" width="36.6544950863332" opacity="0.1467256802480702" transform="matrix(0.9998580361712048,-0.016849555004856485,0.016849555004856485,0.9998580361712048,525.6638544948696,353.517934978873)" fill="none" stroke="#ffa6d5"></use><use xlink:href="#bbburst-shape-10" width="6.048962123965118" opacity="0.861641825969028" transform="matrix(0.9945661942628952,0.10410612484105404,-0.10410612484105404,0.9945661942628952,377.97928946961366,15.908971177089654)" fill="none" stroke="#ffa6d5"></use><use xlink:href="#bbburst-shape-11" width="4.952788005142992" opacity="0.9288798188421731" transform="matrix(0.880221608158337,-0.4745628731065579,0.4745628731065579,0.880221608158337,189.0981892316845,74.8821264883544)" fill="none" stroke="#00a19d"></use><use xlink:href="#bbburst-shape-13" width="4.830210035232735" opacity="0.9633631118223017" transform="matrix(0.8978444258821925,0.44031282846662123,-0.44031282846662123,0.8978444258821925,585.9405641915187,28.476460942630865)" fill="none" stroke="#00a19d"></use><use xlink:href="#bbburst-shape-10" width="25.527704876585222" opacity="0.35137460572309176" transform="matrix(0.7474679224748109,0.6642979037082611,-0.6642979037082611,0.7474679224748109,660.5492892038784,384.38253402127583)" fill="none" stroke="#2c2891"></use><use xlink:href="#bbburst-shape-8" width="9.402657615732313" opacity="0.7801538587197876" transform="matrix(0.7707326230189118,0.6371587116365812,-0.6371587116365812,0.7707326230189118,670.7463199373651,-8.27720218509262)" fill="none" stroke="#2c2891"></use><use xlink:href="#bbburst-shape-8" width="7.0689995154456255" opacity="0.8346417458234089" transform="matrix(0.8598720523696632,-0.5105096018231029,0.5105096018231029,0.8598720523696632,266.40538642735567,68.48268203924124)" fill="none" stroke="#2c2891"></use><use xlink:href="#bbburst-shape-8" width="14.239441228489737" opacity="0.7089459885952119" transform="matrix(0.9996971018542719,-0.02461106548220808,0.02461106548220808,0.9996971018542719,266.2109741515986,59.50539854704215)" fill="none" stroke="#ffa6d5"></use><use xlink:href="#bbburst-shape-4" width="5.142590582820315" opacity="0.9491717406940239" transform="matrix(0.7300183243545652,-0.6834275719537168,0.6834275719537168,0.7300183243545652,129.0288912252982,132.2232595356964)" fill="#ffbd9b"></use><use xlink:href="#bbburst-shape-13" width="30.98558196120484" opacity="0.214762218382477" transform="matrix(0.9841639292605314,-0.17726071291313183,0.17726071291313183,0.9841639292605314,24.395682323869153,211.75870370707196)" fill="none" stroke="#ff5c58"></use><use xlink:href="#bbburst-shape-8" width="17.404893158271687" opacity="0.5867352237269822" transform="matrix(0.7466102004958061,-0.6652617593967147,0.6652617593967147,0.7466102004958061,-58.553925511128114,109.67936520133816)" fill="none" stroke="#00a19d"></use><use xlink:href="#bbburst-shape-13" width="15.901755381520504" opacity="0.5259901949107607" transform="matrix(0.7289310989051233,-0.6845870675443477,0.6845870675443477,0.7289310989051233,313.80959225360925,23.98344458963112)" fill="none" stroke="#ff5c58"></use><use xlink:href="#bbburst-shape-11" width="23.01986053491125" opacity="0.302125504199789" transform="matrix(0.7409152432559188,-0.6715985425170475,0.6715985425170475,0.7409152432559188,203.17612942647656,414.6836388999968)" fill="none" stroke="#ffa6d5"></use><use xlink:href="#bbburst-shape-8" width="6.0765753309218" opacity="0.8987241931562499" transform="matrix(0.9778613537910652,0.2092538476633232,-0.2092538476633232,0.9778613537910652,436.1989272977901,17.911829744433362)" fill="none" stroke="#ffbd9b"></use><use xlink:href="#bbburst-shape-11" width="6.505028127867474" opacity="0.9198133957516303" transform="matrix(0.9984659977238992,-0.05536832478248361,0.05536832478248361,0.9984659977238992,343.0186026248301,18.1638261800652)" fill="none" stroke="#ff5c58"></use><use xlink:href="#bbburst-shape-4" width="21.94501524385255" opacity="0.46330695472720396" transform="matrix(0.912926164830577,-0.4081247573570296,0.4081247573570296,0.912926164830577,65.91034889020574,219.4964956542084)" fill="#ff5c58"></use><use xlink:href="#bbburst-shape-8" width="4.303040463527237" opacity="0.9394903960398432" transform="matrix(0.9717685787929324,-0.23593607030457264,0.23593607030457264,0.9717685787929324,295.47310840843744,37.808750116700935)" fill="none" stroke="#ffa6d5"></use><use xlink:href="#bbburst-shape-10" width="5.597669508764684" opacity="0.9461666315796949" transform="matrix(0.967935704711853,-0.2511980723333053,0.2511980723333053,0.967935704711853,299.4982260244981,-10.546806107631937)" fill="none" stroke="#ffbd9b"></use><use xlink:href="#bbburst-shape-4" width="6.977729329108563" opacity="0.8837858378602877" transform="matrix(0.9657940318832707,0.25931040854284226,-0.25931040854284226,0.9657940318832707,516.1245841348621,-37.0776800683044)" fill="#00a19d"></use><use xlink:href="#bbburst-shape-8" width="21.11818030319512" opacity="0.2820622256272719" transform="matrix(0.9548779750232881,0.2969984054088925,-0.2969984054088925,0.9548779750232881,581.6717561196702,-299.814214652403)" fill="none" stroke="#ffa6d5"></use><use xlink:href="#bbburst-shape-4" width="18.987615399919743" opacity="0.6260375585816698" transform="matrix(0.9665936418580974,-0.2563137365017729,0.2563137365017729,0.9665936418580974,141.38618661636636,97.87886322198585)" fill="#ffa6d5"></use><use xlink:href="#bbburst-shape-13" width="6.197246828319868" opacity="0.9734560428408907" transform="matrix(0.9861982863180039,0.16556853584975725,-0.16556853584975725,0.9861982863180039,460.8143707211178,-6.70223684673158)" fill="none" stroke="#ffbd9b"></use><use xlink:href="#bbburst-shape-11" width="7.013553962908084" opacity="0.8422318294117104" transform="matrix(0.9619655861994612,-0.27317066271458795,0.27317066271458795,0.9619655861994612,293.90376161219376,86.77577416040083)" fill="none" stroke="#2c2891"></use><use xlink:href="#bbburst-shape-11" width="37.927056431777864" opacity="0.017742579660629865" transform="matrix(0.7463676698901276,0.6655338468799176,-0.6655338468799176,0.7463676698901276,287.2816529085338,-160.68635026758884)" fill="none" stroke="#2c2891"></use><use xlink:href="#bbburst-shape-13" width="31.45116376768086" opacity="0.030401377114094075" transform="matrix(0.7848419287092974,0.6196960117185444,-0.6196960117185444,0.7848419287092974,396.3281385694951,441.22094554423035)" fill="none" stroke="#ffa6d5"></use><use xlink:href="#bbburst-shape-8" width="9.209213849357536" opacity="0.7436104422114347" transform="matrix(0.8481747546072201,0.5297165144178364,-0.5297165144178364,0.8481747546072201,606.9725466074088,173.66185562468775)" fill="none" stroke="#2c2891"></use><use xlink:href="#bbburst-shape-1" width="26.524142255059992" opacity="0.02307449297619235" transform="matrix(0.9997075257727126,0.024183939162202885,-0.024183939162202885,0.9997075257727126,148.749232256744,-363.38372661238793)" fill="#ffa6d5"></use><use xlink:href="#bbburst-shape-11" width="8.845117538661185" opacity="0.7563786032133155" transform="matrix(0.9699435399173381,-0.24333008316404936,0.24333008316404936,0.9699435399173381,403.07075293429216,45.42802825723794)" fill="none" stroke="#2c2891"></use><use xlink:href="#bbburst-shape-4" width="20.388458283871692" opacity="0.5988209181587308" transform="matrix(0.7164343646983296,-0.6976544997914805,0.6976544997914805,0.7164343646983296,-18.078932185751285,243.99964105598633)" fill="#2c2891"></use><use xlink:href="#bbburst-shape-1" width="10.36092979064781" opacity="0.8062361218365067" transform="matrix(0.9946995562407873,0.10282408674226443,-0.10282408674226443,0.9946995562407873,512.7696173212528,-39.69543368588717)" fill="#ff5c58"></use><use xlink:href="#bbburst-shape-1" width="33.415953380066014" opacity="0.13183620436068277" transform="matrix(0.7806626064159338,-0.6249527141663447,0.6249527141663447,0.7806626064159338,-232.17427543698375,-29.595992122524365)" fill="#2c2891"></use><use xlink:href="#bbburst-shape-4" width="4.585111565864733" opacity="0.9668841325354849" transform="matrix(0.8933064644504449,0.4494480621507296,-0.4494480621507296,0.8933064644504449,570.0875143644992,54.44430238012245)" fill="#00a19d"></use><use xlink:href="#bbburst-shape-10" width="9.100478211105106" opacity="0.7609762494279446" transform="matrix(0.7345597898266432,0.6785439670130727,-0.6785439670130727,0.7345597898266432,752.3011736946193,36.191007015255025)" fill="none" stroke="#ffa6d5"></use><use xlink:href="#bbburst-shape-13" width="10.946199000761702" opacity="0.816714559567881" transform="matrix(0.9322225961831956,-0.36188538401745746,0.36188538401745746,0.9322225961831956,175.10241215279223,-5.1355818824342805)" fill="none" stroke="#ff5c58"></use><use xlink:href="#bbburst-shape-13" width="26.156109581147177" opacity="0.3774448834344477" transform="matrix(0.8764013824046258,0.48158137102597803,-0.48158137102597803,0.8764013824046258,442.101945602427,286.33614165235457)" fill="none" stroke="#ffa6d5"></use><use xlink:href="#bbburst-shape-4" width="8.232777904980557" opacity="0.7926078931603319" transform="matrix(0.9694224457719848,0.24539788432963983,-0.24539788432963983,0.9694224457719848,452.086009739492,94.52896218827942)" fill="#ffbd9b"></use><use xlink:href="#bbburst-shape-11" width="25.015011469605557" opacity="0.5284022041714012" transform="matrix(0.9951389507698302,0.09848080351378896,-0.09848080351378896,0.9951389507698302,340.6185210821685,-193.4613032935616)" fill="none" stroke="#ffa6d5"></use><use xlink:href="#bbburst-shape-4" width="9.293363880525316" opacity="0.840268447448792" transform="matrix(0.9969052422733353,-0.07861258123190276,0.07861258123190276,0.9969052422733353,407.6842632268909,58.634395625793445)" fill="#00a19d"></use><use xlink:href="#bbburst-shape-4" width="7.4436091631052115" opacity="0.8917748094370657" transform="matrix(0.8093417828901867,0.5873379593284721,-0.5873379593284721,0.8093417828901867,591.7493124462028,46.54705434386574)" fill="#00a19d"></use><use xlink:href="#bbburst-shape-4" width="14.950173157865912" opacity="0.7035769665452951" transform="matrix(0.9567639940299634,-0.2908653635753701,0.2908653635753701,0.9567639940299634,177.69040330854943,109.08350099303175)" fill="#ffa6d5"></use><use xlink:href="#bbburst-shape-4" width="10.018097435453152" opacity="0.7498030294655145" transform="matrix(0.9215445091459635,0.38827273618286046,-0.38827273618286046,0.9215445091459635,663.269729289209,30.82055510164963)" fill="#ffa6d5"></use><use xlink:href="#bbburst-shape-8" width="20.185567908941362" opacity="0.602260633586283" transform="matrix(0.8211403546741286,-0.5707263073712708,0.5707263073712708,0.8211403546741286,336.28296438753216,30.894441542058246)" fill="none" stroke="#00a19d"></use><use xlink:href="#bbburst-shape-10" width="11.038065450218484" opacity="0.7260282409913661" transform="matrix(0.9254312157046755,0.3789156436456094,-0.3789156436456094,0.9254312157046755,454.1129048510769,-53.94605263662464)" fill="none" stroke="#00a19d"></use><use xlink:href="#bbburst-shape-10" width="21.909158993564134" opacity="0.5458847979465555" transform="matrix(0.8205329794289963,-0.5715991862042619,0.5715991862042619,0.8205329794289963,50.4718518936524,249.0399566531218)" fill="none" stroke="#ffbd9b"></use><use xlink:href="#bbburst-shape-4" width="30.36684916437888" opacity="0.3159869057249336" transform="matrix(0.7502820508237775,0.6611178746726385,-0.6611178746726385,0.7502820508237775,849.8224742337391,-146.81555370938406)" fill="#ffbd9b"></use><use xlink:href="#bbburst-shape-1" width="15.571754782464488" opacity="0.507565156920962" transform="matrix(0.9824119688625466,-0.18672633299996755,0.18672633299996755,0.9824119688625466,236.755861931524,214.80581860366993)" fill="#2c2891"></use><use xlink:href="#bbburst-shape-4" width="26.961993860833676" opacity="0.1349205507008504" transform="matrix(0.9850207647441757,0.17243576491783663,-0.17243576491783663,0.9850207647441757,335.0642050772638,373.81627310738645)" fill="#ffa6d5"></use><use xlink:href="#bbburst-shape-13" width="19.21218231955399" opacity="0.502478773044709" transform="matrix(0.7490888046235294,-0.6624695938589874,0.6624695938589874,0.7490888046235294,-58.160279235613785,231.37568956826726)" fill="none" stroke="#ffa6d5"></use><use xlink:href="#bbburst-shape-8" width="9.361896563397153" opacity="0.834583625616119" transform="matrix(0.9482942326358651,0.3173925776535359,-0.3173925776535359,0.9482942326358651,458.8334267537376,57.73467434323527)" fill="none" stroke="#2c2891"></use><use xlink:href="#bbburst-shape-13" width="18.583746904810774" opacity="0.42850499457619196" transform="matrix(0.9070065128433209,-0.42111659390221,0.42111659390221,0.9070065128433209,19.76530237015345,-116.31397203140301)" fill="none" stroke="#00a19d"></use><use xlink:href="#bbburst-shape-11" width="24.855703461121006" opacity="0.2739446008492178" transform="matrix(0.7566050284741652,-0.653872182377877,0.653872182377877,0.7566050284741652,39.778318118433674,-209.1105281497966)" fill="none" stroke="#ffbd9b"></use><use xlink:href="#bbburst-shape-10" width="4.23822018893771" opacity="0.954299520959309" transform="matrix(0.8288734460736497,-0.5594361539925647,0.5594361539925647,0.8288734460736497,188.31669297574197,84.84044589834411)" fill="none" stroke="#ffa6d5"></use><use xlink:href="#bbburst-shape-4" width="24.15318183942093" opacity="0.03454972108159371" transform="matrix(0.9985548133801686,-0.05374276393428792,0.05374276393428792,0.9985548133801686,603.3287571900349,365.44004614129113)" fill="#00a19d"></use><use xlink:href="#bbburst-shape-10" width="27.90571718791784" opacity="0.33906174320781424" transform="matrix(0.9207980102410621,-0.39003977276183116,0.39003977276183116,0.9207980102410621,526.0626983523621,75.57310665119661)" fill="none" stroke="#ffa6d5"></use><use xlink:href="#bbburst-shape-4" width="7.264527006804725" opacity="0.8462882420146537" transform="matrix(0.8583254422915403,-0.513105676362123,0.513105676362123,0.8583254422915403,166.20861174741356,-5.784947519605225)" fill="#ffa6d5"></use><use xlink:href="#bbburst-shape-8" width="7.72681548983975" opacity="0.8612731842562579" transform="matrix(0.845781906187855,-0.5335287875693667,0.5335287875693667,0.845781906187855,205.75042872679475,122.00698954197298)" fill="none" stroke="#00a19d"></use><use xlink:href="#bbburst-shape-11" width="12.941681114572734" opacity="0.7581148462359663" transform="matrix(0.8086326540809767,0.5883138879492438,-0.5883138879492438,0.8086326540809767,693.3937446674521,-16.0141495736637)" fill="none" stroke="#ffa6d5"></use><use xlink:href="#bbburst-shape-10" width="5.922292554272317" opacity="0.8676217555582537" transform="matrix(0.7871208314731868,0.61679882997697,-0.61679882997697,0.7871208314731868,687.214353515218,41.9177751898884)" fill="none" stroke="#ffa6d5"></use><use xlink:href="#bbburst-shape-10" width="13.043356504131857" opacity="0.660282957485285" transform="matrix(0.9169510894590622,-0.3989996234833298,0.3989996234833298,0.9169510894590622,257.3115444142155,-115.32732354945682)" fill="none" stroke="#ffa6d5"></use><use xlink:href="#bbburst-shape-11" width="12.088503384881506" opacity="0.7427159404246797" transform="matrix(0.9727133538370416,-0.23201019647225485,0.23201019647225485,0.9727133538370416,185.65556241931824,6.216603910463107)" fill="none" stroke="#00a19d"></use><use xlink:href="#bbburst-shape-4" width="23.79021107148764" opacity="0.21588233607092067" transform="matrix(0.8140834786994209,0.5807478710323867,-0.5807478710323867,0.8140834786994209,273.18493386324354,18.361551451414584)" fill="#00a19d"></use><use xlink:href="#bbburst-shape-10" width="14.448215238363904" opacity="0.6447416811729634" transform="matrix(0.839114165576102,0.543955344793598,-0.543955344793598,0.839114165576102,496.4701475929879,-50.57381192627878)" fill="none" stroke="#ffbd9b"></use><use xlink:href="#bbburst-shape-10" width="27.4773148597016" opacity="0.04498583821245017" transform="matrix(0.9892542229924344,-0.1462056164845761,0.1462056164845761,0.9892542229924344,690.3215547479874,-224.69201362391695)" fill="none" stroke="#ffbd9b"></use><use xlink:href="#bbburst-shape-8" width="15.618628189530085" opacity="0.5924121428491975" transform="matrix(0.9863130793775708,0.16488332071114278,-0.16488332071114278,0.9863130793775708,577.6333500653543,143.43054973283063)" fill="none" stroke="#00a19d"></use><use xlink:href="#bbburst-shape-8" width="16.604865688022038" opacity="0.6565717512854361" transform="matrix(0.8707887788576618,-0.49165730200575897,0.49165730200575897,0.8707887788576618,107.30795968654814,182.25008203197496)" fill="none" stroke="#ffbd9b"></use><use xlink:href="#bbburst-shape-13" width="6.356977950093573" opacity="0.8755332604714212" transform="matrix(0.7631107305919586,0.6462677563173079,-0.6462677563173079,0.7631107305919586,600.1250030690032,90.25467924153372)" fill="none" stroke="#ffa6d5"></use><use xlink:href="#bbburst-shape-10" width="12.666345219097384" opacity="0.6907104580909547" transform="matrix(0.9520931552769443,-0.30580814847677384,0.30580814847677384,0.9520931552769443,400.82330010953274,-30.71400258744768)" fill="none" stroke="#ffa6d5"></use><use xlink:href="#bbburst-shape-4" width="7.619642665417081" opacity="0.8101345564422185" transform="matrix(0.981593642387932,-0.19098146827269036,0.19098146827269036,0.981593642387932,305.3207832337034,92.28868429795432)" fill="#00a19d"></use><use xlink:href="#bbburst-shape-11" width="4.875932685733676" opacity="0.9194201110873116" transform="matrix(0.885290735705636,-0.4650379697119083,0.4650379697119083,0.885290735705636,175.5385372214599,47.36095516427031)" fill="none" stroke="#ffa6d5"></use><use xlink:href="#bbburst-shape-11" width="6.459989556082581" opacity="0.8372299524972119" transform="matrix(0.9947739913329834,-0.10210145036896118,0.10210145036896118,0.9947739913329834,323.8249054953476,68.16910231936174)" fill="none" stroke="#ff5c58"></use><use xlink:href="#bbburst-shape-8" width="29.60639941017657" opacity="0.1002654481244516" transform="matrix(0.7451859844211896,-0.6668566927175753,0.6668566927175753,0.7451859844211896,490.1222496756955,280.8556247986999)" fill="none" stroke="#2c2891"></use><use xlink:href="#bbburst-shape-4" width="12.630426912564126" opacity="0.6580842289019355" transform="matrix(0.8063973687276842,0.5913740641159936,-0.5913740641159936,0.8063973687276842,748.5720398344183,173.49557959824443)" fill="#00a19d"></use><use xlink:href="#bbburst-shape-10" width="6.554137100172263" opacity="0.8584216379380847" transform="matrix(0.7772719253243536,-0.6291648067895823,0.6291648067895823,0.7772719253243536,132.65754833295748,153.49579051110163)" fill="none" stroke="#ffa6d5"></use><use xlink:href="#bbburst-shape-11" width="20.484299097943893" opacity="0.39883806112369646" transform="matrix(0.937442139142644,0.348141114721694,-0.348141114721694,0.937442139142644,799.4992896450307,0.8068869498454774)" fill="none" stroke="#ff5c58"></use><use xlink:href="#bbburst-shape-10" width="27.989287682175565" opacity="0.1473558104174001" transform="matrix(0.9984994880113041,0.054761048576187764,-0.054761048576187764,0.9984994880113041,778.2485987441747,-100.57846758188634)" fill="none" stroke="#ffa6d5"></use><use xlink:href="#bbburst-shape-4" width="6.290043007972706" opacity="0.9177353048158973" transform="matrix(0.9989984544008067,-0.044744699181013765,0.044744699181013765,0.9989984544008067,410.84524194089727,-18.261936650433654)" fill="#00a19d"></use><use xlink:href="#bbburst-shape-10" width="9.427814843973415" opacity="0.8446787599055849" transform="matrix(0.8500601951462028,-0.5266855462493722,0.5266855462493722,0.8500601951462028,252.6824348444278,43.82070690782268)" fill="none" stroke="#ffbd9b"></use><use xlink:href="#bbburst-shape-13" width="8.184558899051922" opacity="0.8611709925460942" transform="matrix(0.9937237259359257,-0.11186222111160282,0.11186222111160282,0.9937237259359257,292.2361211113044,-17.707732550225103)" fill="none" stroke="#ffbd9b"></use><use xlink:href="#bbburst-shape-1" width="21.003554487780136" opacity="0.5440872272336557" transform="matrix(0.8408352599030681,0.5412911099433834,-0.5412911099433834,0.8408352599030681,570.0384568127963,-143.6755357758374)" fill="#00a19d"></use><use xlink:href="#bbburst-shape-1" width="17.918523428307314" opacity="0.4072542314718136" transform="matrix(0.8333003570354331,0.5528205088133216,-0.5528205088133216,0.8333003570354331,659.2500402465398,-201.06260260793078)" fill="#00a19d"></use><use xlink:href="#bbburst-shape-11" width="19.64824244365448" opacity="0.5390340955281308" transform="matrix(0.9323199783981092,-0.36163442573923893,0.36163442573923893,0.9323199783981092,440.4785838718541,102.80646995479344)" fill="none" stroke="#ffa6d5"></use><use xlink:href="#bbburst-shape-1" width="9.821592246318477" opacity="0.8386900406543246" transform="matrix(0.9919364064371058,-0.1267365992310068,0.1267365992310068,0.9919364064371058,403.4451108969944,46.13482502265174)" fill="#ffa6d5"></use><use xlink:href="#bbburst-shape-1" width="24.014118100942248" opacity="0.1613394915777705" transform="matrix(0.9536610498294443,0.3008830371393543,-0.3008830371393543,0.9536610498294443,576.8459393647953,-356.2768011489932)" fill="#ff5c58"></use><use xlink:href="#bbburst-shape-4" width="31.878596278891173" opacity="0.3323359229086251" transform="matrix(0.9804544671368627,0.19674612542911882,-0.19674612542911882,0.9804544671368627,749.8902205309645,-84.73644141973784)" fill="#ffbd9b"></use><use xlink:href="#bbburst-shape-13" width="8.033736981602067" opacity="0.8878652053179626" transform="matrix(0.7831822333161875,-0.6217922397536567,0.6217922397536567,0.7831822333161875,188.19001411495276,119.91755061129408)" fill="none" stroke="#ff5c58"></use><use xlink:href="#bbburst-shape-11" width="18.495885364645243" opacity="0.4788731966047248" transform="matrix(0.8823789915316803,0.47053938762183856,-0.47053938762183856,0.8823789915316803,778.3897472140015,167.79253730664936)" fill="none" stroke="#2c2891"></use><use xlink:href="#bbburst-shape-10" width="15.841874200501614" opacity="0.7041626996547864" transform="matrix(0.9697931004126096,-0.24392896997301947,0.24392896997301947,0.9697931004126096,359.15448670900196,130.5240577085067)" fill="none" stroke="#00a19d"></use><use xlink:href="#bbburst-shape-11" width="14.487201093910237" opacity="0.663193404394322" transform="matrix(0.9454888784716543,-0.325654388403432,0.325654388403432,0.9454888784716543,319.2939788811352,-116.66523024030931)" fill="none" stroke="#00a19d"></use><use xlink:href="#bbburst-shape-13" width="36.309088548069234" opacity="0.2675670141056211" transform="matrix(0.9935031095897133,-0.11380497017077139,0.11380497017077139,0.9935031095897133,119.3760958720847,252.68783744486956)" fill="none" stroke="#ffa6d5"></use><use xlink:href="#bbburst-shape-13" width="5.484130892413494" opacity="0.8701051597712617" transform="matrix(0.7547177300439051,-0.6560496535761414,0.6560496535761414,0.7547177300439051,92.99310117259421,140.02384866204505)" fill="none" stroke="#ffbd9b"></use><use xlink:href="#bbburst-shape-13" width="17.351437695111436" opacity="0.6192143944245516" transform="matrix(0.9354829447669886,-0.35337184388414894,0.35337184388414894,0.9354829447669886,332.2460402369438,179.48924736859828)" fill="none" stroke="#2c2891"></use><use xlink:href="#bbburst-shape-1" width="13.59520133678937" opacity="0.59246012441031" transform="matrix(0.872744837536158,0.4881766571170577,-0.4881766571170577,0.872744837536158,770.5048956552756,76.03240377840604)" fill="#ffbd9b"></use><use xlink:href="#bbburst-shape-13" width="38.55098480908542" opacity="-0.10513415287052696" transform="matrix(0.9835368804207968,0.18070751188627268,-0.18070751188627268,0.9835368804207968,101.49359192412572,354.573748905417)" fill="none" stroke="#ffa6d5"></use><use xlink:href="#bbburst-shape-4" width="19.556230710871713" opacity="0.4073978778828111" transform="matrix(0.7151579881124523,-0.6989628402418467,0.6989628402418467,0.7151579881124523,365.617694769201,207.48447213799494)" fill="#00a19d"></use><use xlink:href="#bbburst-shape-4" width="5.914041322416288" opacity="0.9237091998921496" transform="matrix(0.924845781546202,-0.3803423199647848,0.3803423199647848,0.924845781546202,264.4117702680214,59.596154433507195)" fill="#00a19d"></use><use xlink:href="#bbburst-shape-10" width="23.97987833805499" opacity="0.1629075211837715" transform="matrix(0.9999981360401071,0.0019307812696839088,-0.0019307812696839088,0.9999981360401071,356.958801187965,-375.36735604655644)" fill="none" stroke="#2c2891"></use><use xlink:href="#bbburst-shape-4" width="36.4754269273055" opacity="0.004586990521723844" transform="matrix(0.94376051604013,-0.3306298358643204,0.3306298358643204,0.94376051604013,611.0436598378719,294.43035070917614)" fill="#2c2891"></use><use xlink:href="#bbburst-shape-10" width="20.886025837185258" opacity="0.5856803058744755" transform="matrix(0.8997825804421323,0.4363385244656923,-0.4363385244656923,0.8997825804421323,534.1877260843514,219.3871140398495)" fill="none" stroke="#ffa6d5"></use><use xlink:href="#bbburst-shape-10" width="12.93166375896779" opacity="0.5648880978285933" transform="matrix(0.9101355762845095,-0.4143105511343681,0.4143105511343681,0.9101355762845095,249.4956592701688,-156.03499165979147)" fill="none" stroke="#00a19d"></use><use xlink:href="#bbburst-shape-1" width="26.745043210180523" opacity="0.1932229745801376" transform="matrix(0.8827045774837688,0.4699283231400308,-0.4699283231400308,0.8827045774837688,551.8916172607862,402.9027031391675)" fill="#ff5c58"></use><use xlink:href="#bbburst-shape-11" width="21.869320602392" opacity="0.30752300451702863" transform="matrix(0.7291474702446815,-0.6843566077972661,0.6843566077972661,0.7291474702446815,-138.74579212187905,-60.8417263588932)" fill="none" stroke="#00a19d"></use><use xlink:href="#bbburst-shape-11" width="26.182661151237692" opacity="0.3005971275006384" transform="matrix(0.9254862498106164,0.378781205198306,-0.378781205198306,0.9254862498106164,328.89719920545616,-209.32865048614582)" fill="none" stroke="#00a19d"></use><use xlink:href="#bbburst-shape-8" width="32.38711926296454" opacity="0.2710900340013812" transform="matrix(0.9498236673714958,-0.31278587068626057,0.31278587068626057,0.9498236673714958,-63.04234551458529,84.74829638198571)" fill="none" stroke="#00a19d"></use><use xlink:href="#bbburst-shape-10" width="13.118516495429711" opacity="0.6383130019614559" transform="matrix(0.9916039892689525,-0.12931174914097732,0.12931174914097732,0.9916039892689525,494.1733184811892,61.338991906421654)" fill="none" stroke="#ffa6d5"></use><use xlink:href="#bbburst-shape-8" width="3.7974024080922426" opacity="0.96442553473001" transform="matrix(0.912797076456098,0.40841339010027616,-0.40841339010027616,0.912797076456098,545.634987224118,34.706256935009776)" fill="none" stroke="#00a19d"></use><use xlink:href="#bbburst-shape-13" width="13.016779444648462" opacity="0.7674464276567377" transform="matrix(0.9742179066434581,-0.22560910969027456,0.22560910969027456,0.9742179066434581,292.0185754846097,-92.24543949101451)" fill="none" stroke="#ffbd9b"></use><use xlink:href="#bbburst-shape-10" width="17.989400107430512" opacity="0.538703213740469" transform="matrix(0.8352278435074508,-0.5499040365644656,0.5499040365644656,0.8352278435074508,337.8697617943985,-54.65305632622125)" fill="none" stroke="#2c2891"></use><use xlink:href="#bbburst-shape-10" width="12.492448533494652" opacity="0.7034741553490129" transform="matrix(0.8951990678729904,0.4456664996152718,-0.4456664996152718,0.8951990678729904,664.3972194949608,-57.77759007157738)" fill="none" stroke="#ffa6d5"></use><use xlink:href="#bbburst-shape-11" width="8.672506620686832" opacity="0.824383809144023" transform="matrix(0.9689595351291278,0.24721937481181455,-0.24721937481181455,0.9689595351291278,418.81233613665273,33.242517212556606)" fill="none" stroke="#00a19d"></use><use xlink:href="#bbburst-shape-13" width="13.568284967383574" opacity="0.7445798028751538" transform="matrix(0.8597735453064176,0.510675484815194,-0.510675484815194,0.8597735453064176,496.8484963320148,-1.1391168996725582)" fill="none" stroke="#ffa6d5"></use><use xlink:href="#bbburst-shape-1" width="29.89210879006511" opacity="0.38092210915978963" transform="matrix(0.9998827786504663,0.015311073059151494,-0.015311073059151494,0.9998827786504663,115.38296193118508,-39.46106910601219)" fill="#2c2891"></use><use xlink:href="#bbburst-shape-10" width="20.441188148414764" opacity="0.4894440186172082" transform="matrix(0.9902316856043873,0.13943173535853975,-0.13943173535853975,0.9902316856043873,517.7953803651922,-215.64723813728722)" fill="none" stroke="#ff5c58"></use><use xlink:href="#bbburst-shape-1" width="24.449129979010262" opacity="0.19107918711074567" transform="matrix(0.9776287104039623,0.2103380721455004,-0.2103380721455004,0.9776287104039623,826.1359893494983,91.37783953585085)" fill="#ffa6d5"></use><use xlink:href="#bbburst-shape-11" width="4.715559083828853" opacity="0.942539236353147" transform="matrix(0.8710802536652398,-0.4911407045587869,0.4911407045587869,0.8710802536652398,175.78434606256954,55.73236946225262)" fill="none" stroke="#2c2891"></use><use xlink:href="#bbburst-shape-10" width="10.571337386143583" opacity="0.7575835713890751" transform="matrix(0.996698395312967,-0.08119303406423874,0.08119303406423874,0.996698395312967,333.37907817361287,106.94611253871926)" fill="none" stroke="#00a19d"></use><use xlink:href="#bbburst-shape-10" width="15.088170455847488" opacity="0.6563197664576623" transform="matrix(0.7803482787408924,0.6253451557868873,-0.6253451557868873,0.7803482787408924,509.58544177837575,7.092457639366785)" fill="none" stroke="#00a19d"></use><use xlink:href="#bbburst-shape-11" width="6.101644420878982" opacity="0.9008431242696108" transform="matrix(0.8142534905755476,0.5805094771711625,-0.5805094771711625,0.8142534905755476,642.3391739779406,115.27587293490336)" fill="none" stroke="#2c2891"></use><use xlink:href="#bbburst-shape-13" width="10.281707588707672" opacity="0.7332876821065077" transform="matrix(0.8107581885578012,0.5853812088600665,-0.5853812088600665,0.8107581885578012,673.7020959649305,-39.08786376492816)" fill="none" stroke="#ffa6d5"></use><use xlink:href="#bbburst-shape-13" width="6.346374636963407" opacity="0.8405653745161927" transform="matrix(0.9955752732303528,0.09396741633304843,-0.09396741633304843,0.9955752732303528,454.5713408804498,-67.3880493002265)" fill="none" stroke="#ffbd9b"></use><use xlink:href="#bbburst-shape-10" width="5.684391523811042" opacity="0.8440071164458662" transform="matrix(0.999810932179517,-0.019444790930355754,0.019444790930355754,0.999810932179517,448.46924922533793,-37.765034977168)" fill="none" stroke="#ffa6d5"></use><use xlink:href="#bbburst-shape-4" width="10.715577745071233" opacity="0.7011766684566061" transform="matrix(0.8348859289947167,-0.5504230060295707,0.5504230060295707,0.8348859289947167,160.57815178033314,-64.65243413804797)" fill="#2c2891"></use><use xlink:href="#bbburst-shape-10" width="13.190820229224261" opacity="0.7130520636303528" transform="matrix(0.9869011581312257,0.16132607997235124,-0.16132607997235124,0.9869011581312257,544.7828256276118,99.81093108842515)" fill="none" stroke="#ffa6d5"></use><use xlink:href="#bbburst-shape-4" width="24.319118174650963" opacity="0.48151433450706116" transform="matrix(0.9244213767101518,-0.3813726763695948,0.3813726763695948,0.9244213767101518,396.16899282663553,204.7522895124082)" fill="#ffbd9b"></use><use xlink:href="#bbburst-shape-11" width="12.138580305796545" opacity="0.7789564113664819" transform="matrix(0.7938602355259573,0.608100260196188,-0.608100260196188,0.7938602355259573,542.126111274129,54.08509224347972)" fill="none" stroke="#ff5c58"></use><use xlink:href="#bbburst-shape-13" width="12.889458263739751" opacity="0.7479395147802189" transform="matrix(0.7346889943111654,-0.6784040695913081,0.6784040695913081,0.7346889943111654,154.2686316726555,219.78374522195185)" fill="none" stroke="#00a19d"></use><use xlink:href="#bbburst-shape-11" width="6.340639539350325" opacity="0.8519905646884156" transform="matrix(0.8768247728405835,-0.4808100640929422,0.4808100640929422,0.8768247728405835,267.39037379773697,73.6506256419272)" fill="none" stroke="#2c2891"></use><use xlink:href="#bbburst-shape-13" width="15.65887333483167" opacity="0.5756696073270495" transform="matrix(0.7294646280986036,0.6840185350946025,-0.6840185350946025,0.7294646280986036,552.3849006730247,-49.18922192371414)" fill="none" stroke="#00a19d"></use><use xlink:href="#bbburst-shape-8" width="16.212085505982117" opacity="0.6232529066485688" transform="matrix(0.8896038584681699,0.4567329361875979,-0.4567329361875979,0.8896038584681699,723.3072259153847,-42.55121296181744)" fill="none" stroke="#00a19d"></use><use xlink:href="#bbburst-shape-8" width="24.37011002558375" opacity="0.33848086096976726" transform="matrix(0.9674922314933829,0.2529007354674048,-0.2529007354674048,0.9674922314933829,630.0253733778237,272.2799937870334)" fill="none" stroke="#ffa6d5"></use><use xlink:href="#bbburst-shape-13" width="6.729323292569475" opacity="0.8131366587974157" transform="matrix(0.8777956716113193,0.4790352376396051,-0.4790352376396051,0.8777956716113193,672.6256243635605,42.71439865967034)" fill="none" stroke="#ffa6d5"></use><use xlink:href="#bbburst-shape-10" width="21.8814418434008" opacity="0.5298221743905792" transform="matrix(0.9204043715847596,-0.3909677643587303,0.3909677643587303,0.9204043715847596,36.7467947001806,113.81609185837141)" fill="none" stroke="#2c2891"></use><use xlink:href="#bbburst-shape-4" width="25.22923068044947" opacity="0.4466399434828845" transform="matrix(0.8748550636406492,-0.4843847826081199,0.4843847826081199,0.8748550636406492,373.2075328727119,-117.96059291051063)" fill="#00a19d"></use><use xlink:href="#bbburst-shape-4" width="21.106709552073017" opacity="0.42651277180002023" transform="matrix(0.9804578951191072,-0.19672904182811893,0.19672904182811893,0.9804578951191072,240.850657200156,-238.45029530439353)" fill="#ffa6d5"></use><use xlink:href="#bbburst-shape-10" width="17.18014833833867" opacity="0.640107826260034" transform="matrix(0.9887863465198586,-0.14933707153921993,0.14933707153921993,0.9887863465198586,253.4925719997667,-136.00865942120987)" fill="none" stroke="#ffbd9b"></use><use xlink:href="#bbburst-shape-10" width="8.817458419714672" opacity="0.7734203576201715" transform="matrix(0.9418488447203788,-0.3360368338424937,0.3360368338424937,0.9418488447203788,314.9165136963734,111.54931209967776)" fill="none" stroke="#ffa6d5"></use><use xlink:href="#bbburst-shape-10" width="10.878757389036181" opacity="0.83096435337108" transform="matrix(0.7200512000613725,-0.6939209387892669,0.6939209387892669,0.7200512000613725,42.71176320345967,109.43618270514685)" fill="none" stroke="#ff5c58"></use><use xlink:href="#bbburst-shape-10" width="6.441333664805592" opacity="0.9030709037314791" transform="matrix(0.9864468174383282,0.16408131022695324,-0.16408131022695324,0.9864468174383282,505.733881093935,-0.5404654563753866)" fill="none" stroke="#2c2891"></use><use xlink:href="#bbburst-shape-10" width="7.372837458246671" opacity="0.8517870451865537" transform="matrix(0.9965807801008324,0.08262414134873916,-0.08262414134873916,0.9965807801008324,376.8609761151266,-40.05286484611173)" fill="none" stroke="#ffa6d5"></use><use xlink:href="#bbburst-shape-1" width="8.963406890685" opacity="0.7905808374226222" transform="matrix(0.7831015946155827,-0.6218937952018266,0.6218937952018266,0.7831015946155827,240.8875518208894,103.85444069921874)" fill="#ff5c58"></use><use xlink:href="#bbburst-shape-11" width="29.959422424534644" opacity="0.294139811561129" transform="matrix(0.9856344250988216,0.1688928064190874,-0.1688928064190874,0.9856344250988216,368.1136666945171,308.9594777748248)" fill="none" stroke="#2c2891"></use><use xlink:href="#bbburst-shape-11" width="19.353367027590394" opacity="0.6689538228721585" transform="matrix(0.9735335370889641,0.22854420177079668,-0.22854420177079668,0.9735335370889641,519.6353193817176,152.28473139971538)" fill="none" stroke="#2c2891"></use><use xlink:href="#bbburst-shape-1" width="5.168355572131634" opacity="0.9170907102213885" transform="matrix(0.9930145480371754,-0.1179919801788423,0.1179919801788423,0.9930145480371754,386.712592487167,10.952301260979652)" fill="#00a19d"></use><use xlink:href="#bbburst-shape-4" width="32.668425399466095" opacity="-0.10042759682546509" transform="matrix(0.9087971752111415,-0.41723817458167684,0.41723817458167684,0.9087971752111415,573.7748848828321,-301.39921329639327)" fill="#ffa6d5"></use><use xlink:href="#bbburst-shape-4" width="28.852823685356416" opacity="0.09327473918987828" transform="matrix(0.929056683560774,-0.3699373983947227,0.3699373983947227,0.929056683560774,-46.908112641861166,325.2046763878911)" fill="#00a19d"></use><use xlink:href="#bbburst-shape-10" width="6.392639467960645" opacity="0.9344179324240907" transform="matrix(0.8320167247110668,-0.5547505473643706,0.5547505473643706,0.8320167247110668,192.8021945503874,45.10181523798815)" fill="none" stroke="#ff5c58"></use><use xlink:href="#bbburst-shape-10" width="12.05380698509844" opacity="0.728062587204602" transform="matrix(0.9893129056480703,-0.14580800635826674,0.14580800635826674,0.9893129056480703,349.6483534993717,-116.42232931771167)" fill="none" stroke="#ffa6d5"></use><use xlink:href="#bbburst-shape-8" width="13.773908864642257" opacity="0.6887606264466554" transform="matrix(0.9246076559223761,0.3809208350953369,-0.3809208350953369,0.9246076559223761,685.1570054456938,43.397387884360796)" fill="none" stroke="#ffa6d5"></use><use xlink:href="#bbburst-shape-8" width="8.941701235103086" opacity="0.7909548341996826" transform="matrix(0.981164892646324,-0.19317208245066764,0.19317208245066764,0.981164892646324,384.99336445776845,74.78411794225156)" fill="none" stroke="#ffa6d5"></use><use xlink:href="#bbburst-shape-8" width="27.37725221967277" opacity="0.3715763700997915" transform="matrix(0.7217411954426479,-0.6921630203940524,0.6921630203940524,0.7217411954426479,-109.24029797652696,295.32435834679086)" fill="none" stroke="#2c2891"></use><use xlink:href="#bbburst-shape-4" width="23.73903328237742" opacity="0.11540054131432032" transform="matrix(0.9238721668434137,0.38270121417635394,-0.38270121417635394,0.9238721668434137,700.4194230789369,-339.3062702886095)" fill="#2c2891"></use><use xlink:href="#bbburst-shape-8" width="14.843486249479575" opacity="0.6955822912345344" transform="matrix(0.7141609816782576,-0.6999814942184882,0.6999814942184882,0.7141609816782576,-16.7301101637874,80.93057622558467)" fill="none" stroke="#00a19d"></use><use xlink:href="#bbburst-shape-13" width="3.9242286792005707" opacity="0.930938653462631" transform="matrix(0.7127095784175503,-0.7014592339059182,0.7014592339059182,0.7127095784175503,144.83571969454653,131.9966999794387)" fill="none" stroke="#2c2891"></use><use xlink:href="#bbburst-shape-4" width="21.898840216102354" opacity="0.4962092917962594" transform="matrix(0.8917949796176886,-0.45243973557666917,0.45243973557666917,0.8917949796176886,52.04990296704034,-115.07989585615502)" fill="#00a19d"></use><use xlink:href="#bbburst-shape-8" width="5.103250618943532" opacity="0.9563008353475183" transform="matrix(0.9958364656798852,-0.09115774033067547,0.09115774033067547,0.9958364656798852,344.8782854349999,-9.367857301630977)" fill="none" stroke="#2c2891"></use><use xlink:href="#bbburst-shape-8" width="37.437252417655" opacity="0.01405748251379324" transform="matrix(0.859831622069022,-0.5105776940781437,0.5105776940781437,0.859831622069022,439.3688886712853,-294.1048301138224)" fill="none" stroke="#2c2891"></use><use xlink:href="#bbburst-shape-8" width="5.367294718353502" opacity="0.9641724455132842" transform="matrix(0.9904240961349714,0.13805835648458528,-0.13805835648458528,0.9904240961349714,468.41933306998925,6.389784231455678)" fill="none" stroke="#2c2891"></use><use xlink:href="#bbburst-shape-10" width="12.428940804663142" opacity="0.795681813244125" transform="matrix(0.9797076054599482,0.20043205283570437,-0.20043205283570437,0.9797076054599482,402.5717419510857,-50.91683261898737)" fill="none" stroke="#ffa6d5"></use><use xlink:href="#bbburst-shape-11" width="19.402438179948632" opacity="0.3812620126233799" transform="matrix(0.9998690319621159,0.016183909389925494,-0.016183909389925494,0.9998690319621159,380.8273874600684,-278.3294675213006)" fill="none" stroke="#ff5c58"></use><use xlink:href="#bbburst-shape-10" width="13.51436724695305" opacity="0.7161218612787503" transform="matrix(0.9647511352288264,-0.263163916741431,0.263163916741431,0.9647511352288264,245.22840913625382,-104.4174383427295)" fill="none" stroke="#2c2891"></use><use xlink:href="#bbburst-shape-8" width="8.55494076568925" opacity="0.7964119885063066" transform="matrix(0.7793713517079172,0.6265622843237327,-0.6265622843237327,0.7793713517079172,656.3096325710596,176.7409982310861)" fill="none" stroke="#ffbd9b"></use><use xlink:href="#bbburst-shape-4" width="29.79167451108936" opacity="0.20155342933824705" transform="matrix(0.9922976645848575,-0.12387632889070342,0.12387632889070342,0.9922976645848575,161.7605632816218,319.3605663697587)" fill="#ffa6d5"></use><use xlink:href="#bbburst-shape-11" width="6.824008927532095" opacity="0.9009700832164356" transform="matrix(0.8041327202375333,0.5944498029635344,-0.5944498029635344,0.8041327202375333,592.1774951418313,64.22509343967442)" fill="none" stroke="#2c2891"></use><use xlink:href="#bbburst-shape-8" width="5.0910205195528695" opacity="0.8830463653020433" transform="matrix(0.8274853400265298,0.5614873213539004,-0.5614873213539004,0.8274853400265298,576.2357138815662,92.68636113571824)" fill="none" stroke="#ffbd9b"></use><use xlink:href="#bbburst-shape-10" width="17.64241170170426" opacity="0.6306231605230284" transform="matrix(0.954626643384433,-0.2978052580807978,0.2978052580807978,0.954626643384433,224.5882635678244,-138.40134902270725)" fill="none" stroke="#2c2891"></use><use xlink:href="#bbburst-shape-4" width="18.29199542222068" opacity="0.1694161990753501" transform="matrix(0.866899487895592,0.49848297652614004,-0.49848297652614004,0.866899487895592,964.4766414042451,72.23968571653307)" fill="#ffa6d5"></use><use xlink:href="#bbburst-shape-1" width="14.195661791427904" opacity="0.6748824791112398" transform="matrix(0.9602279931177515,0.27921712202702625,-0.27921712202702625,0.9602279931177515,585.2100681997492,-108.32318776472084)" fill="#2c2891"></use><use xlink:href="#bbburst-shape-10" width="16.767730052516974" opacity="0.5863317012688387" transform="matrix(0.8030322750528849,-0.5959355378087363,0.5959355378087363,0.8030322750528849,309.245079725147,187.83916841014752)" fill="none" stroke="#ff5c58"></use><use xlink:href="#bbburst-shape-13" width="8.401151592704194" opacity="0.7988616547256122" transform="matrix(0.9925482069786551,0.12185260285876932,-0.12185260285876932,0.9925482069786551,483.636780948413,-79.17911684222048)" fill="none" stroke="#2c2891"></use><use xlink:href="#bbburst-shape-8" width="7.157310364517903" opacity="0.8628807684016324" transform="matrix(0.8350771600051684,-0.5501328356294527,0.5501328356294527,0.8350771600051684,176.56484207792224,6.23547265722101)" fill="none" stroke="#ffa6d5"></use><use xlink:href="#bbburst-shape-4" width="12.412015108790753" opacity="0.6022983746340765" transform="matrix(0.7403498237391946,-0.6722217926319731,0.6722217926319731,0.7403498237391946,249.97331182487716,-21.532362926409405)" fill="#2c2891"></use><use xlink:href="#bbburst-shape-4" width="17.629591569952876" opacity="0.5046823854850375" transform="matrix(0.9881877712311286,-0.15324793241428977,0.15324793241428977,0.9881877712311286,108.72833187353044,-20.804362627418413)" fill="#2c2891"></use><use xlink:href="#bbburst-shape-8" width="25.013876601911775" opacity="0.5913942297073455" transform="matrix(0.9290356286742754,-0.3699902710258663,0.3699902710258663,0.9290356286742754,64.68268937084946,-21.19020824797127)" fill="none" stroke="#ffa6d5"></use><use xlink:href="#bbburst-shape-11" width="22.975865841994384" opacity="0.2721126842955158" transform="matrix(0.9443209515063382,-0.3290257445036238,0.3290257445036238,0.9443209515063382,249.01510860993545,-301.66896879144036)" fill="none" stroke="#2c2891"></use><use xlink:href="#bbburst-shape-10" width="5.570861954467643" opacity="0.8814455445511876" transform="matrix(0.9112841773943448,-0.41177803247710093,0.41177803247710093,0.9112841773943448,234.43950692852462,89.95606879636222)" fill="none" stroke="#ffa6d5"></use><use xlink:href="#bbburst-shape-1" width="11.577804795864772" opacity="0.7270598547629271" transform="matrix(0.9544294553279126,-0.2984366177305729,0.2984366177305729,0.9544294553279126,213.77568677758342,126.3855574999505)" fill="#2c2891"></use><use xlink:href="#bbburst-shape-11" width="8.259742269508425" opacity="0.8166126941483588" transform="matrix(0.999912036499089,-0.013263455969111857,0.013263455969111857,0.999912036499089,396.09562980009576,-82.35513945273368)" fill="none" stroke="#ff5c58"></use><use xlink:href="#bbburst-shape-11" width="10.579958045179726" opacity="0.7773101401500802" transform="matrix(0.8556555921521315,-0.5175456575209431,0.5175456575209431,0.8556555921521315,106.02603920694986,117.44808937933271)" fill="none" stroke="#ffa6d5"></use><use xlink:href="#bbburst-shape-11" width="19.581734572426683" opacity="0.3476485965227416" transform="matrix(0.9568117145335717,0.2907083468552751,-0.2907083468552751,0.9568117145335717,759.3853665877556,164.0952172128251)" fill="none" stroke="#ffa6d5"></use><use xlink:href="#bbburst-shape-11" width="8.518463558483901" opacity="0.753251119025057" transform="matrix(0.9051824320469718,-0.4250232519680886,0.4250232519680886,0.9051824320469718,326.4365862430804,-7.896356692818529)" fill="none" stroke="#00a19d"></use><use xlink:href="#bbburst-shape-10" width="48.755074611622035" opacity="-0.10254919780360328" transform="matrix(0.9199043206144617,0.39214288328981023,-0.39214288328981023,0.9199043206144617,183.9600410295074,-328.70676388817435)" fill="none" stroke="#ffa6d5"></use><use xlink:href="#bbburst-shape-1" width="14.635766309182749" opacity="0.7117623110318967" transform="matrix(0.9986329213108804,0.05227129684728455,-0.05227129684728455,0.9986329213108804,340.8301740616686,-107.18770689727899)" fill="#ffbd9b"></use><use xlink:href="#bbburst-shape-11" width="7.555981411878312" opacity="0.8829203804824001" transform="matrix(0.7518282773277383,-0.6593589624858416,0.6593589624858416,0.7518282773277383,181.11816750803746,79.4565534624868)" fill="none" stroke="#00a19d"></use><use xlink:href="#bbburst-shape-1" width="15.052125504722245" opacity="0.6275512932743234" transform="matrix(0.9999898385961143,-0.004508071041730157,0.004508071041730157,0.9999898385961143,380.17029300148226,-167.21526687769995)" fill="#ffa6d5"></use><use xlink:href="#bbburst-shape-4" width="23.2117055376602" opacity="0.5571186579711707" transform="matrix(0.9433503999079348,0.33179816604908996,-0.33179816604908996,0.9433503999079348,355.39411969170254,-90.89914998078359)" fill="#ffbd9b"></use><use xlink:href="#bbburst-shape-11" width="4.895765861181732" opacity="0.9220623985928907" transform="matrix(0.996495691083008,-0.08364411308034965,0.08364411308034965,0.996495691083008,365.60062357179476,36.58330749958748)" fill="none" stroke="#00a19d"></use><use xlink:href="#bbburst-shape-10" width="40.129450440254914" opacity="0.03379152834225607" transform="matrix(0.8182858422382091,0.5748115172754499,-0.5748115172754499,0.8182858422382091,250.1226163753879,299.89526373465833)" fill="none" stroke="#2c2891"></use><use xlink:href="#bbburst-shape-11" width="18.412107437269203" opacity="0.6683969233787963" transform="matrix(0.9971748413145463,0.07511548341926311,-0.07511548341926311,0.9971748413145463,271.8648318230282,-7.564438007578701)" fill="none" stroke="#00a19d"></use><use xlink:href="#bbburst-shape-4" width="25.028530575292827" opacity="0.17252438739570009" transform="matrix(0.996944532940784,0.07811272776879581,-0.07811272776879581,0.996944532940784,96.22473885713748,-185.80064787328865)" fill="#00a19d"></use><use xlink:href="#bbburst-shape-11" width="27.78326380163047" opacity="0.20419336336382266" transform="matrix(0.9411564025703494,-0.33797133887482,0.33797133887482,0.9411564025703494,441.5237359766676,-275.71623198272994)" fill="none" stroke="#2c2891"></use><use xlink:href="#bbburst-shape-4" width="12.201265228782576" opacity="0.6897609182782654" transform="matrix(0.8176273656812403,-0.5757477667252868,0.5757477667252868,0.8176273656812403,128.37246746343325,211.26369777007693)" fill="#00a19d"></use><use xlink:href="#bbburst-shape-11" width="26.958952410568056" opacity="0.4591773675904238" transform="matrix(0.9869776618051388,0.1608573750179363,-0.1608573750179363,0.9869776618051388,579.7389165595765,-203.89302252052255)" fill="none" stroke="#2c2891"></use><use xlink:href="#bbburst-shape-10" width="16.0772945556158" opacity="0.6261808585191071" transform="matrix(0.9576561293334026,0.2879144629055046,-0.2879144629055046,0.9576561293334026,344.06379446506963,54.58212765683237)" fill="none" stroke="#ffbd9b"></use><use xlink:href="#bbburst-shape-10" width="13.213322050000997" opacity="0.6846553003452971" transform="matrix(0.7564766383468092,0.6540207149896025,-0.6540207149896025,0.7564766383468092,771.1761622530089,9.352129390606763)" fill="none" stroke="#00a19d"></use><use xlink:href="#bbburst-shape-10" width="12.241182202911974" opacity="0.7827377011716565" transform="matrix(0.771614101422026,0.6360909357054849,-0.6360909357054849,0.771614101422026,613.2939765746273,-3.270355016892154)" fill="none" stroke="#ffa6d5"></use><use xlink:href="#bbburst-shape-8" width="19.901738483513657" opacity="0.49211333895019305" transform="matrix(0.8103228541540997,-0.5859836789839404,0.5859836789839404,0.8103228541540997,-67.399112646314,122.14485103529017)" fill="none" stroke="#2c2891"></use><use xlink:href="#bbburst-shape-11" width="18.19440748787184" opacity="0.4425007786377657" transform="matrix(0.7367781148541436,0.6761346089884576,-0.6761346089884576,0.7367781148541436,523.9294471110784,-109.22618907541292)" fill="none" stroke="#00a19d"></use><use xlink:href="#bbburst-shape-8" width="9.757021484800067" opacity="0.8121129419651631" transform="matrix(0.9951407025988035,0.09846309984537177,-0.09846309984537177,0.9951407025988035,492.62343445534634,-59.96762558708997)" fill="none" stroke="#00a19d"></use><use xlink:href="#bbburst-shape-10" width="28.418141835306585" opacity="0.3597773943194629" transform="matrix(0.8693717302604171,0.49415867352906856,-0.49415867352906856,0.8693717302604171,795.6616835672414,242.0903885732552)" fill="none" stroke="#ffa6d5"></use><use xlink:href="#bbburst-shape-10" width="31.398419504622392" opacity="0.12434204119375802" transform="matrix(0.9785326682298253,0.20609176889681613,-0.20609176889681613,0.9785326682298253,186.04628748029842,-270.86483847951655)" fill="none" stroke="#00a19d"></use><use xlink:href="#bbburst-shape-1" width="16.606208231102926" opacity="0.6207486240449309" transform="matrix(0.9143561220920732,0.4049109556343786,-0.4049109556343786,0.9143561220920732,488.618266924095,188.40617342340488)" fill="#2c2891"></use><use xlink:href="#bbburst-shape-13" width="12.124127419361418" opacity="0.7768480437305173" transform="matrix(0.9697536339142058,0.2440858240664391,-0.2440858240664391,0.9697536339142058,432.3119789201581,-70.31505597325821)" fill="none" stroke="#ff5c58"></use><use xlink:href="#bbburst-shape-8" width="8.554826052398605" opacity="0.7934606634389444" transform="matrix(0.9774521693332935,-0.21115694794545248,0.21115694794545248,0.9774521693332935,401.6713567666192,-12.021400966781869)" fill="none" stroke="#2c2891"></use><use xlink:href="#bbburst-shape-8" width="27.622514870943583" opacity="0.2489449558975525" transform="matrix(0.9455620308808916,-0.32544192378426556,0.32544192378426556,0.9455620308808916,463.54281718795175,293.60755852527484)" fill="none" stroke="#2c2891"></use><use xlink:href="#bbburst-shape-11" width="25.3004627590646" opacity="0.4802082946984123" transform="matrix(0.9295162474139506,0.3687811624710343,-0.3687811624710343,0.9295162474139506,767.5651632280717,55.3404919404814)" fill="none" stroke="#ffa6d5"></use><use xlink:href="#bbburst-shape-13" width="33.34474824171189" opacity="0.09687706347114378" transform="matrix(0.9843913727892176,-0.17599325321772843,0.17599325321772843,0.9843913727892176,588.3786336926194,308.2375673213079)" fill="none" stroke="#ffa6d5"></use><use xlink:href="#bbburst-shape-11" width="8.801067135286441" opacity="0.7430759424126241" transform="matrix(0.9850721986560194,0.17214169580608854,-0.17214169580608854,0.9850721986560194,577.6048460065526,-19.057317730418845)" fill="none" stroke="#00a19d"></use><use xlink:href="#bbburst-shape-8" width="25.638820050883293" opacity="0.12420799348386857" transform="matrix(0.8588682508184551,0.5121965713825576,-0.5121965713825576,0.8588682508184551,220.31311056043634,175.4902409834985)" fill="none" stroke="#00a19d"></use><use xlink:href="#bbburst-shape-4" width="21.199638701151336" opacity="0.4809588116549791" transform="matrix(0.7293282396090289,0.6841639561602137,-0.6841639561602137,0.7293282396090289,783.8316102307915,302.65289722277004)" fill="#ffa6d5"></use><use xlink:href="#bbburst-shape-11" width="6.587392686945268" opacity="0.8867133075646955" transform="matrix(0.951697674080197,0.30703670326256277,-0.30703670326256277,0.951697674080197,548.8500992024402,60.0557586017261)" fill="none" stroke="#ffbd9b"></use><use xlink:href="#bbburst-shape-11" width="36.414433692109206" opacity="0.19484216652623387" transform="matrix(0.9395865546168103,0.3423114172552703,-0.3423114172552703,0.9395865546168103,846.5210670879658,-139.49892250158078)" fill="none" stroke="#2c2891"></use><use xlink:href="#bbburst-shape-8" width="10.990353578338244" opacity="0.8131641510232899" transform="matrix(0.9371233286603139,-0.34899837661601435,0.34899837661601435,0.9371233286603139,285.76375274562037,105.41238028671376)" fill="none" stroke="#ff5c58"></use><use xlink:href="#bbburst-shape-4" width="6.838374274771143" opacity="0.9143168726587922" transform="matrix(0.8614918326245244,-0.5077714272398934,0.5077714272398934,0.8614918326245244,199.44901331215783,18.981661233493014)" fill="#2c2891"></use><use xlink:href="#bbburst-shape-4" width="3.853978665735435" opacity="0.9488773794604459" transform="matrix(0.9916788727110668,-0.12873621642143948,0.12873621642143948,0.9916788727110668,327.80412149412246,16.851805306080394)" fill="#ffa6d5"></use><use xlink:href="#bbburst-shape-11" width="15.662309750912058" opacity="0.5890003857901484" transform="matrix(0.9982412035706295,-0.0592832142672873,0.0592832142672873,0.9982412035706295,427.17978977464236,-174.41361783436625)" fill="none" stroke="#2c2891"></use><use xlink:href="#bbburst-shape-10" width="6.071712128080211" opacity="0.9310311869867873" transform="matrix(0.9763215896733585,0.21632418620599558,-0.21632418620599558,0.9763215896733585,455.05256078669305,-3.442275995284433)" fill="none" stroke="#ffa6d5"></use><use xlink:href="#bbburst-shape-4" width="25.439151537931675" opacity="0.47526726487077986" transform="matrix(0.8105047058250976,-0.5857321246400713,0.5857321246400713,0.8105047058250976,383.7357675500997,23.057428612652018)" fill="#00a19d"></use><use xlink:href="#bbburst-shape-11" width="6.241237508132285" opacity="0.8879482620451021" transform="matrix(0.7598292213004126,0.6501227226132068,-0.6501227226132068,0.7598292213004126,646.7524409157733,44.764641632613575)" fill="none" stroke="#2c2891"></use><use xlink:href="#bbburst-shape-13" width="10.279747443046745" opacity="0.7740346872522416" transform="matrix(0.8426630793085282,-0.5384412082765109,0.5384412082765109,0.8426630793085282,113.50404642197392,142.37715549068167)" fill="none" stroke="#2c2891"></use><use xlink:href="#bbburst-shape-8" width="8.471085054155532" opacity="0.8688006168085847" transform="matrix(0.7848888015857355,-0.6196366428361931,0.6196366428361931,0.7848888015857355,207.85199901617995,87.65930562320978)" fill="none" stroke="#2c2891"></use><use xlink:href="#bbburst-shape-11" width="26.433606415037048" opacity="0.2766317117260382" transform="matrix(0.8767743521589844,-0.48090200186336646,0.48090200186336646,0.8767743521589844,455.9175642302388,-140.47049269588382)" fill="none" stroke="#ffa6d5"></use><use xlink:href="#bbburst-shape-13" width="13.399256667103662" opacity="0.7122156232299603" transform="matrix(0.9603048479656456,-0.2789526823202784,0.2789526823202784,0.9603048479656456,155.09957920434755,43.65163940230258)" fill="none" stroke="#ff5c58"></use><use xlink:href="#bbburst-shape-4" width="9.766700198007502" opacity="0.828912914050077" transform="matrix(0.7678942775651997,0.6405765984506615,-0.6405765984506615,0.7678942775651997,600.5076243800575,146.52516651449628)" fill="#2c2891"></use><use xlink:href="#bbburst-shape-8" width="23.251929022480418" opacity="0.23723619364251114" transform="matrix(0.8110330352225881,-0.5850003553653931,0.5850003553653931,0.8110330352225881,498.43488975791877,51.64369827775158)" fill="none" stroke="#ffbd9b"></use><use xlink:href="#bbburst-shape-13" width="23.270457641975256" opacity="0.44490311796340043" transform="matrix(0.9416642721113684,0.33655370838688836,-0.33655370838688836,0.9416642721113684,587.9062736700328,260.8099906801811)" fill="none" stroke="#ffa6d5"></use><use xlink:href="#bbburst-shape-4" width="26.740160573994256" opacity="0.2365425530182701" transform="matrix(0.9759406953546346,-0.21803614184513623,0.21803614184513623,0.9759406953546346,-14.888380543967259,150.54125191704208)" fill="#2c2891"></use><use xlink:href="#bbburst-shape-8" width="30.43580176352551" opacity="0.17437034144420493" transform="matrix(0.9976207533226708,-0.06894079010213779,0.06894079010213779,0.9976207533226708,-13.850698568234474,20.09069114869527)" fill="none" stroke="#ffbd9b"></use><use xlink:href="#bbburst-shape-8" width="8.325932054912391" opacity="0.8311089576968114" transform="matrix(0.8391898873729116,-0.5438385173293998,0.5438385173293998,0.8391898873729116,133.9106587764231,5.385851063129337)" fill="none" stroke="#ffa6d5"></use><use xlink:href="#bbburst-shape-11" width="4.550280094852702" opacity="0.9770907638908833" transform="matrix(0.9346862211465133,-0.35547386401654224,0.35547386401654224,0.9346862211465133,258.6692901423707,36.740556579998554)" fill="none" stroke="#00a19d"></use><use xlink:href="#bbburst-shape-4" width="4.994932341354904" opacity="0.9856426816180844" transform="matrix(0.8511893411916971,-0.5248587480852773,0.5248587480852773,0.8511893411916971,181.47265344902058,60.768017245578505)" fill="#2c2891"></use><use xlink:href="#bbburst-shape-4" width="10.36583576500168" opacity="0.7725474363322511" transform="matrix(0.7696178405193235,0.6385047999462284,-0.6385047999462284,0.7696178405193235,555.173149701538,123.71202096630049)" fill="#ffa6d5"></use><use xlink:href="#bbburst-shape-4" width="5.95097333018331" opacity="0.9022406108663197" transform="matrix(0.8638247571950947,-0.5037924065097009,0.5037924065097009,0.8638247571950947,183.81993547143057,98.2700155988664)" fill="#ffbd9b"></use><use xlink:href="#bbburst-shape-1" width="5.913060624357559" opacity="0.899822243941382" transform="matrix(0.9282362678306815,-0.37199117070673526,0.37199117070673526,0.9282362678306815,275.45886994119155,-6.28991941859482)" fill="#ffbd9b"></use><use xlink:href="#bbburst-shape-4" width="26.32570485567803" opacity="0.1259839220895741" transform="matrix(0.8472874666468128,0.5311345863933417,-0.5311345863933417,0.8472874666468128,467.13354766580653,-315.60625100945106)" fill="#2c2891"></use><use xlink:href="#bbburst-shape-1" width="4.7803382022329615" opacity="0.9034851267352957" transform="matrix(0.9963630836234109,0.0852091872537702,-0.0852091872537702,0.9963630836234109,403.53293399174106,34.31528594887868)" fill="#00a19d"></use><use xlink:href="#bbburst-shape-10" width="14.524503707090247" opacity="0.6287229162654372" transform="matrix(0.7843388668593121,0.6203326058928793,-0.6203326058928793,0.7843388668593121,809.3946129546248,75.50651602929457)" fill="none" stroke="#2c2891"></use><use xlink:href="#bbburst-shape-4" width="19.394720999013646" opacity="0.4237809537053926" transform="matrix(0.9965659062324561,0.08280334857409796,-0.08280334857409796,0.9965659062324561,363.5581139396406,252.87379353162999)" fill="#2c2891"></use><use xlink:href="#bbburst-shape-8" width="16.618121650177006" opacity="0.5848278011636738" transform="matrix(0.9269345268534227,-0.3752231108647511,0.3752231108647511,0.9269345268534227,260.6180982005979,218.26222246704378)" fill="none" stroke="#ffa6d5"></use><use xlink:href="#bbburst-shape-4" width="31.348679365739194" opacity="0.4610845712537779" transform="matrix(0.7421774730336184,-0.6702034008578536,0.6702034008578536,0.7421774730336184,-103.39017870525706,19.992361942251136)" fill="#00a19d"></use><use xlink:href="#bbburst-shape-8" width="7.005153948819474" opacity="0.874965566858805" transform="matrix(0.9925597733027453,-0.12175835257263844,0.12175835257263844,0.9925597733027453,320.2115085925728,52.428767469518505)" fill="none" stroke="#2c2891"></use><use xlink:href="#bbburst-shape-4" width="32.258978550416884" opacity="-0.10932677092089294" transform="matrix(0.965367352223079,-0.2608943756806607,0.2608943756806607,0.965367352223079,627.8841524369476,376.18053060197445)" fill="#ffbd9b"></use><use xlink:href="#bbburst-shape-1" width="30.546558530221915" opacity="0.34104304072316316" transform="matrix(0.9655428998033759,0.2602439406389472,-0.2602439406389472,0.9655428998033759,610.695751533451,-260.7149626948404)" fill="#00a19d"></use><use xlink:href="#bbburst-shape-8" width="21.45322713792516" opacity="0.404824002771897" transform="matrix(0.8777469319252467,-0.4791245386074651,0.4791245386074651,0.8777469319252467,431.41479342954545,-78.94661247669359)" fill="none" stroke="#ffa6d5"></use><use xlink:href="#bbburst-shape-13" width="40.65820099489558" opacity="0.12576817646412408" transform="matrix(0.8900330168461094,0.45589607250316744,-0.45589607250316744,0.8900330168461094,846.9882274414632,-238.84003566203467)" fill="none" stroke="#ffa6d5"></use><use xlink:href="#bbburst-shape-11" width="4.5071927354077985" opacity="0.9181735219808789" transform="matrix(0.9687191195285746,-0.24815976196753428,0.24815976196753428,0.9687191195285746,286.64513637953985,-21.83290392642101)" fill="none" stroke="#ff5c58"></use><use xlink:href="#bbburst-shape-10" width="16.6916323200529" opacity="0.48746256225125506" transform="matrix(0.7563422654712774,-0.6541761058474819,0.6541761058474819,0.7563422654712774,130.27686679492058,-127.71256328789633)" fill="none" stroke="#00a19d"></use><use xlink:href="#bbburst-shape-1" width="5.699128604503414" opacity="0.8864134046690241" transform="matrix(0.9960413248508387,0.0888913898495576,-0.0888913898495576,0.9960413248508387,481.2672043349113,17.324207572676585)" fill="#00a19d"></use><use xlink:href="#bbburst-shape-10" width="21.098739404842956" opacity="0.3847299828038654" transform="matrix(0.9392585036498011,-0.3432105233257521,0.3432105233257521,0.9392585036498011,-23.160445390439364,50.270697350824605)" fill="none" stroke="#2c2891"></use><use xlink:href="#bbburst-shape-10" width="32.798208530771646" opacity="0.31176661944616546" transform="matrix(0.9896396424013529,0.1435735985051651,-0.1435735985051651,0.9896396424013529,150.63451371464203,-105.39595859562559)" fill="none" stroke="#ffa6d5"></use><use xlink:href="#bbburst-shape-8" width="7.8350410016073155" opacity="0.8204401945595057" transform="matrix(0.8495079394670867,-0.5275758341531429,0.5275758341531429,0.8495079394670867,171.43956983347513,-17.280390416107593)" fill="none" stroke="#2c2891"></use><use xlink:href="#bbburst-shape-10" width="5.087554805004748" opacity="0.990210007181067" transform="matrix(0.9712042119836592,-0.23824856479147863,0.23824856479147863,0.9712042119836592,306.4297025981896,10.793459988430811)" fill="none" stroke="#00a19d"></use><use xlink:href="#bbburst-shape-13" width="9.48504541298217" opacity="0.7891166091765709" transform="matrix(0.9922035242765868,-0.12462811245108713,0.12462811245108713,0.9922035242765868,250.9138807198977,12.06112564037403)" fill="none" stroke="#ffbd9b"></use><use xlink:href="#bbburst-shape-10" width="9.76555858799024" opacity="0.6984801875259582" transform="matrix(0.9997036600165613,-0.024343215676889587,0.024343215676889587,0.9997036600165613,502.0345167754391,69.53509466127275)" fill="none" stroke="#ffa6d5"></use><use xlink:href="#bbburst-shape-1" width="26.948353336424766" opacity="0.38638708602395144" transform="matrix(0.7639944884646577,-0.6452227689686919,0.6452227689686919,0.7639944884646577,-122.98222751828271,209.95634820998458)" fill="#ffbd9b"></use><use xlink:href="#bbburst-shape-8" width="12.46509982146437" opacity="0.686291441038015" transform="matrix(0.9509975885906029,0.3091982963970828,-0.3091982963970828,0.9509975885906029,657.2883281492057,-3.734247560846825)" fill="none" stroke="#2c2891"></use><use xlink:href="#bbburst-shape-8" width="7.594141344580744" opacity="0.8489019869057448" transform="matrix(0.8144059216581423,-0.5802956098129226,0.5802956098129226,0.8144059216581423,200.49785449208622,18.57824500268657)" fill="none" stroke="#00a19d"></use><use xlink:href="#bbburst-shape-13" width="5.7300788332623345" opacity="0.9459398314803789" transform="matrix(0.8525171473642361,0.5226992571737072,-0.5226992571737072,0.8525171473642361,595.897485197488,35.66750852784429)" fill="none" stroke="#2c2891"></use><use xlink:href="#bbburst-shape-10" width="10.675341735611294" opacity="0.80567575645395" transform="matrix(0.8210873075512843,0.5708026220841864,-0.5708026220841864,0.8210873075512843,703.9871344175575,103.71752069234702)" fill="none" stroke="#00a19d"></use><use xlink:href="#bbburst-shape-1" width="8.59620059100474" opacity="0.8813471875807295" transform="matrix(0.896351994689183,-0.44334309695395363,0.44334309695395363,0.896351994689183,188.58236399401525,-0.6353133567877194)" fill="#2c2891"></use><use xlink:href="#bbburst-shape-4" width="21.116460068403914" opacity="0.4909505958266325" transform="matrix(0.9999887279870033,-0.004748041589450347,0.004748041589450347,0.9999887279870033,384.6497445310011,229.12776822080684)" fill="#ff5c58"></use><use xlink:href="#bbburst-shape-1" width="16.5196948425803" opacity="0.6724119036006179" transform="matrix(0.8900914207021248,-0.4557820343020039,0.4557820343020039,0.8900914207021248,208.9816514176282,195.15540894911516)" fill="#2c2891"></use><use xlink:href="#bbburst-shape-10" width="20.995951841036575" opacity="0.5718470140620671" transform="matrix(0.9416352041937956,-0.33663502821736907,0.33663502821736907,0.9416352041937956,357.19900063758274,-136.73732943815426)" fill="none" stroke="#ffa6d5"></use><use xlink:href="#bbburst-shape-1" width="15.896623956431753" opacity="0.534161412993055" transform="matrix(0.9600847287321851,0.2797093378048836,-0.2797093378048836,0.9600847287321851,713.527857540905,1.7152214329179287)" fill="#ffa6d5"></use></svg>